<svg xmlns="http://www.w3.org/2000/svg" viewBox="0 0 130 130"><defs><linearGradient id="grad" x1="0%" y1="0%" x2="100%" y2="0%"><stop offset="0%" style="stop-color:#4D8CF4;stop-opacity:1" /><stop offset="100%" style="stop-color:#F44D4D;stop-opacity:1" /></linearGradient><filter id="shadow" x="-20%" y="-30%" width="200%" height="200%"><feDropShadow dx="2" dy="3" stdDeviation="0" flood-color="#5B3A55"></feDropShadow></filter></defs><path fill="url(#grad)" d="M20.218 0h89.565C120.983 0 130 9.017 130 20.218v89.565c0 11.201-9.017 20.218-20.218 20.218H20.218C9.018 130 0 120.983 0 109.782V20.218C0 9.017 9.018 0 20.218 0z" paint-order="fill markers stroke"/><path d="M83.322 25.714c-3.099 1.274-2.474 5.123-2.648 7.822-.287 1.71.683 3.739 2.693 3.493 5.315.705 11.254.354 15.838 3.493 1.143 3.264-1.32 6.281-2.217 9.285-4.364 10.197-9.664 20.219-11.288 31.304.493 2.511 3.66 2.04 5.545 2.58 1.706.301 3.429.518 5.155.661 2.441-10.305 6.563-20.098 11.15-29.608 2.516-5.781 5.069-12.589 2.457-18.778-2.383-5.352-8.207-7.77-13.568-8.988-4.25-.909-8.764-1.426-13.118-1.264zm4.786 64.592c-6.062-.228-9.747 8.16-5.552 12.514 3.499 4.21 11.474 2.771 12.882-2.663 1.497-4.594-2.416-10.249-7.331-9.852zm-22.03-65.545c-3.226 1.132-2.915 5.164-3.735 7.867-4.614 19.115-8.407 38.478-14.837 57.095-7.01-18.059-11.317-36.996-16.703-55.564-4.032.083-8.399-.139-11.906 2.106 6.148 21.224 10.4 43.222 20.222 63.169 3.888 5.633 13.632 5.695 17.139-.395 3.294-5.033 4.367-11.194 6.348-16.837 5.148-17.874 9.122-36.102 13.04-54.279-.464-2.83-3.914-3.059-6.227-3.139a36.07 36.07 0 0 0-3.341-.025z" fill="#FFFFFF" fill-rule="evenodd" filter="url(#shadow)"/></svg>