<?xml version="1.0" standalone="no"?>
<!DOCTYPE svg PUBLIC "-//W3C//DTD SVG 20010904//EN"
 "http://www.w3.org/TR/2001/REC-SVG-20010904/DTD/svg10.dtd">
<svg version="1.0" xmlns="http://www.w3.org/2000/svg"
 width="836.000000pt" height="836.000000pt" viewBox="0 0 836.000000 836.000000"
 preserveAspectRatio="xMidYMid meet">
<metadata>
Created by potrace 1.14, written by Peter Selinger 2001-2017
</metadata>
<g transform="translate(0.000000,836.000000) scale(0.100000,-0.100000)"
fill="#000000" stroke="none">
<path d="M1254 8351 c-3 -3 -30 -6 -62 -8 -82 -4 -125 -11 -230 -39 -91 -23
-252 -86 -282 -109 -8 -6 -37 -24 -65 -40 -160 -91 -345 -287 -449 -475 -48
-89 -55 -105 -116 -295 -10 -33 -28 -137 -37 -224 -8 -70 -7 -5907 1 -5976 14
-134 29 -196 78 -340 72 -213 258 -454 460 -598 122 -86 321 -177 447 -202 52
-11 137 -24 191 -30 68 -7 5909 -9 5965 -2 22 3 69 9 105 12 36 4 83 13 105
20 22 7 54 16 70 20 30 7 139 47 185 68 94 44 242 148 346 244 46 42 144 159
144 171 0 6 4 12 8 14 10 4 71 106 110 183 16 33 43 105 60 160 39 127 46 160
58 275 8 73 7 5941 0 6004 -6 50 -21 144 -30 182 -2 12 -12 44 -21 70 -9 27
-18 56 -20 64 -23 103 -167 337 -279 452 -63 65 -197 178 -210 178 -3 0 -28
15 -54 33 -38 26 -209 110 -232 113 -4 0 -75 21 -105 31 -22 7 -173 34 -215
38 -57 6 -5920 12 -5926 6z"/>
</g>
</svg>
