<svg xmlns="http://www.w3.org/2000/svg" viewBox="0 0 191.735 61.294"><defs><linearGradient id="grad" x1="0%" y1="0%" x2="100%" y2="0%"><stop offset="0%" style="stop-color:#4D8CF4;stop-opacity:1" /><stop offset="100%" style="stop-color:#F44D4D;stop-opacity:1" /></linearGradient><filter id="shadow" x="-20%" y="-30%" width="200%" height="200%"><feDropShadow dx="0" dy="3" stdDeviation="0" flood-color="#5B3A55"></feDropShadow></filter></defs><path fill="url(#grad)" d="M127.372.109c-1.806.083-3.48.261-3.6.381-.029.029.054.812.184 1.74.733 5.247 1.296 13.764 1.789 27.056.016.421-.02.578-.127.554a46.76 46.76 0 0 1-1.106-.31c-3.518-1.017-8.504-.874-10.809.308-8.863 4.546-5.093 25.325 5.494 30.286 2.886 1.352 7.948 1.429 11.549.174.933-.325 1.168-.365 1.646-.282.307.053 1.449.132 2.538.176l1.98.079-.08-1.281c-.103-1.649-.077-1.582-.816-2.091-2.677-1.844-3.721-8.86-4.588-30.842-.494-12.512-.831-17.497-1.59-23.549-.271-2.155-.338-2.533-.448-2.507-.043.01-.951.058-2.017.108M34.107 4.378c-.057.134-.584 2.331-1.172 4.883-7.222 31.35-10.079 41.865-12.797 47.093l-.216.416-.759-1.586c-2.657-5.547-5.449-14.388-11.304-35.798l-1.997-7.278-.175-.617H4.508c-1.573 0-4.34.428-4.506.697-.028.046.317 1.401.768 3.011L3.472 25c7.198 26.259 10.553 34.881 13.933 35.815 1.757.485 4.255.41 5.522-.167 3.332-1.518 6.183-9.925 12.582-37.116l4.279-18.545c.058-.551-5.457-1.142-5.682-.608M138.119 14.95c-.065.025-.262.077-.438.116-1.589.35-2.169 3.037-.935 4.335.642.676.841.723 3.037.723h2.016l.503-.354c1.511-1.062 1.441-3.58-.125-4.5-.501-.294-3.514-.533-4.058-.322m40.403 0a4.37 4.37 0 0 1-.438.116c-1.686.371-2.18 3.248-.778 4.529.738.674 4.119.84 5.237.257 1.686-.878 1.597-3.755-.145-4.695-.329-.177-3.514-.348-3.876-.208M43.16 27.65c-5.619 1.217-7.945 9.626-5.054 18.272 2.848 8.519 10.553 14.887 18.532 15.316.856.046 1.556.064 1.557.039a82.25 82.25 0 0 1 .288-1.512c.333-1.701.413-1.541-.934-1.872-5.317-1.305-9.669-4.785-12.526-10.016-.871-1.595-.887-1.511.341-1.835 4.663-1.232 10.113-4.218 14.68-8.041 1.097-.919 1.083-.804.231-1.962-2.392-3.248-6.558-6.691-9.511-7.86-1.757-.696-5.6-.964-7.602-.53m46.158 0c-6.909 1.496-8.49 13.446-3.01 22.757 3.608 6.13 9.898 10.354 16.076 10.795 2.186.156 1.909.334 2.253-1.448.324-1.68.381-1.544-.754-1.809-5.269-1.231-9.857-4.823-12.615-9.876-.969-1.776-.972-1.716.077-1.981 4.335-1.095 9.715-3.952 14.147-7.513 1.879-1.51 1.759-1.306 1.234-2.098-2.042-3.086-6.643-7.012-9.624-8.212-1.939-.78-5.662-1.075-7.783-.615m-24.4 2.487c-.91.037-.969.056-.966.299.007.719 2.095 30.644 2.141 30.689.078.078 5.609-.148 5.694-.233.04-.039-.235-4.63-.611-10.201l-.683-10.129.264-.683c1.024-2.66 3.854-4.696 8.277-5.959.9-.256 1.655-.486 1.679-.51s-.076-.718-.221-1.542l-.264-1.499-1.591.07c-2.526.111-4.565.663-7.17 1.94l-1.427.7c-.042.02-.11-.481-.151-1.114s-.102-1.323-.134-1.533l-.059-.381-1.903.024-2.872.063m-18.284.783c2.619 1.065 7.94 5.369 7.268 5.879-3.532 2.681-8.403 5.333-10.601 5.772l-.335.067-.164-1.391c-.541-4.598.16-7.722 2.19-9.752.472-.472.878-.858.903-.858s.357.127.74.283m46.762.298c2.035.978 3.951 2.421 6.062 4.562l.803.814-.51.412c-2.717 2.196-8.16 5.138-10.298 5.565l-.341.068-.162-1.392c-.536-4.605.156-7.679 2.199-9.76.991-1.009.766-.982 2.246-.27m27.703 1.364c1.565.452 4.817 1.989 4.924 2.328.023.072.127 1.664.232 3.537.467 8.368 1.124 12.657 2.713 17.709.177.561-3.302 1.796-4.518 1.604-6.959-1.1-12.75-16.88-8.579-23.379 1.28-1.994 2.77-2.507 5.228-1.798m47.869 2.944c-1.956 9.475-3.869 16.139-5.733 19.971-.655 1.346-.593 1.351-1.271-.107-1.8-3.869-2.967-7.583-5.127-16.326l-1.328-5.373h-1.288c-1.23 0-3.957.377-4.312.596-.313.193 2.668 11.767 4.377 16.997 1.726 5.281 3.64 8.615 5.435 9.467 1.035.491 4.284.565 5.53.125 2.61-.92 5.152-6.479 7.734-16.908.973-3.934 2.417-10.795 2.296-10.916-.165-.165-2.382-.449-3.922-.503l-1.762-.062-.627 3.039m-31.095-.808c.035.501.095 1.597.132 2.437.526 11.93 3.423 21.56 7.027 23.354 1.204.599 4.563.67 6.267.132.407-.129-1.105-2.683-1.709-2.889-.924-.314-1.061-.425-1.664-1.348-2.041-3.126-3.87-12.072-4.185-20.474l-.08-2.123h-2.926-2.926l.064.91m40.355-.571c0 11.022 3.042 23.326 6.392 25.856 1.42 1.072 4.771 1.373 7.087.637.101-.032-.064-.472-.519-1.385l-.666-1.339-.656-.206c-2.747-.861-5.326-10.661-5.725-21.759l-.077-2.143h-2.918-2.917v.34" fill-rule="evenodd" filter="url(#shadow)"/></svg>